<?xml version="1.0" encoding="us-ascii" standalone="no"?><svg xmlns="http://www.w3.org/2000/svg" xmlns:xlink="http://www.w3.org/1999/xlink" contentStyleType="text/css" height="964px" preserveAspectRatio="none" style="width:1550px;height:964px;background:#FFFFFF;" version="1.1" viewBox="0 0 1550 964" width="1550px" zoomAndPan="magnify"><defs/><g><!--class keras.src.models.model.Model--><g id="elem_keras.src.models.model.Model"><rect codeLine="4" fill="#A8C9EA" height="325.0469" id="keras.src.models.model.Model" rx="2.5" ry="2.5" style="stroke:#181818;stroke-width:0.5;" width="603" x="7" y="632"/><ellipse cx="198.75" cy="648" fill="#ADD1B2" rx="11" ry="11" style="stroke:#181818;stroke-width:1.0;"/><path d="M201.7188,653.6406 Q201.1406,653.9375 200.5,654.0781 Q199.8594,654.2344 199.1563,654.2344 Q196.6563,654.2344 195.3281,652.5938 Q194.0156,650.9375 194.0156,647.8125 Q194.0156,644.6875 195.3281,643.0313 Q196.6563,641.375 199.1563,641.375 Q199.8594,641.375 200.5,641.5313 Q201.1563,641.6875 201.7188,641.9844 L201.7188,644.7031 Q201.0938,644.125 200.5,643.8594 Q199.9063,643.5781 199.2813,643.5781 Q197.9375,643.5781 197.25,644.6563 Q196.5625,645.7188 196.5625,647.8125 Q196.5625,649.9063 197.25,650.9844 Q197.9375,652.0469 199.2813,652.0469 Q199.9063,652.0469 200.5,651.7813 Q201.0938,651.5 201.7188,650.9219 L201.7188,653.6406 Z " fill="#000000"/><text fill="#000000" font-family="sans-serif" font-size="14" lengthAdjust="spacing" textLength="211" x="219.25" y="652.8467">keras.src.models.model.Model</text><line style="stroke:#181818;stroke-width:0.5;" x1="8" x2="609" y1="664" y2="664"/><text fill="#000000" font-family="sans-serif" font-size="14" lengthAdjust="spacing" textLength="40" x="13" y="680.9951">layers</text><text fill="#000000" font-family="sans-serif" font-size="14" lengthAdjust="spacing" textLength="195" x="13" y="697.292">predict_function : NoneType</text><text fill="#000000" font-family="sans-serif" font-size="14" lengthAdjust="spacing" textLength="174" x="13" y="713.5889">test_function : NoneType</text><text fill="#000000" font-family="sans-serif" font-size="14" lengthAdjust="spacing" textLength="177" x="13" y="729.8857">train_function : NoneType</text><line style="stroke:#181818;stroke-width:0.5;" x1="8" x2="609" y1="737.1875" y2="737.1875"/><text fill="#000000" font-family="sans-serif" font-size="14" lengthAdjust="spacing" textLength="172" x="13" y="754.1826">build_from_config(config)</text><text fill="#000000" font-family="sans-serif" font-size="14" font-style="italic" lengthAdjust="spacing" textLength="32" x="13" y="770.4795">call()</text><text fill="#000000" font-family="sans-serif" font-size="14" lengthAdjust="spacing" textLength="335" x="13" y="786.7764">export(filepath, format, verbose, input_signature)</text><text fill="#000000" font-family="sans-serif" font-size="14" lengthAdjust="spacing" textLength="250" x="13" y="803.0732">from_config(config, custom_objects)</text><text fill="#000000" font-family="sans-serif" font-size="14" lengthAdjust="spacing" textLength="156" x="13" y="819.3701">get_layer(name, index)</text><text fill="#000000" font-family="sans-serif" font-size="14" lengthAdjust="spacing" textLength="197" x="13" y="835.667">get_state_tree(value_format)</text><text fill="#000000" font-family="sans-serif" font-size="14" lengthAdjust="spacing" textLength="260" x="13" y="851.9639">load_weights(filepath, skip_mismatch)</text><text fill="#000000" font-family="sans-serif" font-size="14" lengthAdjust="spacing" textLength="110" x="13" y="868.2607">quantize(mode)</text><text fill="#000000" font-family="sans-serif" font-size="14" lengthAdjust="spacing" textLength="218" x="13" y="884.5576">save(filepath, overwrite, zipped)</text><text fill="#000000" font-family="sans-serif" font-size="14" lengthAdjust="spacing" textLength="341" x="13" y="900.8545">save_weights(filepath, overwrite, max_shard_size)</text><text fill="#000000" font-family="sans-serif" font-size="14" lengthAdjust="spacing" textLength="179" x="13" y="917.1514">set_state_tree(state_tree)</text><text fill="#000000" font-family="sans-serif" font-size="14" lengthAdjust="spacing" textLength="591" x="13" y="933.4482">summary(line_length, positions, print_fn, expand_nested, show_trainable, layer_range)</text><text fill="#000000" font-family="sans-serif" font-size="14" lengthAdjust="spacing" textLength="60" x="13" y="949.7451">to_json()</text></g><!--class lib.data.base.BaseLoadData--><g id="elem_lib.data.base.BaseLoadData"><rect codeLine="23" fill="#A8C9EA" height="276.1563" id="lib.data.base.BaseLoadData" rx="2.5" ry="2.5" style="stroke:#181818;stroke-width:0.5;" width="501" x="658" y="295"/><ellipse cx="808.75" cy="311" fill="#ADD1B2" rx="11" ry="11" style="stroke:#181818;stroke-width:1.0;"/><path d="M811.7188,316.6406 Q811.1406,316.9375 810.5,317.0781 Q809.8594,317.2344 809.1563,317.2344 Q806.6563,317.2344 805.3281,315.5938 Q804.0156,313.9375 804.0156,310.8125 Q804.0156,307.6875 805.3281,306.0313 Q806.6563,304.375 809.1563,304.375 Q809.8594,304.375 810.5,304.5313 Q811.1563,304.6875 811.7188,304.9844 L811.7188,307.7031 Q811.0938,307.125 810.5,306.8594 Q809.9063,306.5781 809.2813,306.5781 Q807.9375,306.5781 807.25,307.6563 Q806.5625,308.7188 806.5625,310.8125 Q806.5625,312.9063 807.25,313.9844 Q807.9375,315.0469 809.2813,315.0469 Q809.9063,315.0469 810.5,314.7813 Q811.0938,314.5 811.7188,313.9219 L811.7188,316.6406 Z " fill="#000000"/><text fill="#000000" font-family="sans-serif" font-size="14" lengthAdjust="spacing" textLength="191" x="829.25" y="315.8467">lib.data.base.BaseLoadData</text><line style="stroke:#181818;stroke-width:0.5;" x1="659" x2="1158" y1="327" y2="327"/><text fill="#000000" font-family="sans-serif" font-size="14" lengthAdjust="spacing" textLength="70" x="664" y="343.9951">Processor</text><text fill="#000000" font-family="sans-serif" font-size="14" lengthAdjust="spacing" textLength="213" x="664" y="360.292">input_shape : ClassVar[list[int]]</text><text fill="#000000" font-family="sans-serif" font-size="14" lengthAdjust="spacing" textLength="263" x="664" y="376.5889">input_shape_model : ClassVar[list[int]]</text><text fill="#000000" font-family="sans-serif" font-size="14" lengthAdjust="spacing" textLength="100" x="664" y="392.8857">input_size : int</text><text fill="#000000" font-family="sans-serif" font-size="14" lengthAdjust="spacing" textLength="210" x="664" y="409.1826">label_shape : ClassVar[list[int]]</text><text fill="#000000" font-family="sans-serif" font-size="14" lengthAdjust="spacing" textLength="260" x="664" y="425.4795">label_shape_model : ClassVar[list[int]]</text><text fill="#000000" font-family="sans-serif" font-size="14" lengthAdjust="spacing" textLength="97" x="664" y="441.7764">label_size : int</text><text fill="#000000" font-family="sans-serif" font-size="14" lengthAdjust="spacing" textLength="76" x="664" y="458.0732">n_data : int</text><text fill="#000000" font-family="sans-serif" font-size="14" lengthAdjust="spacing" textLength="150" x="664" y="474.3701">params : dict[str, Any]</text><text fill="#000000" font-family="sans-serif" font-size="14" lengthAdjust="spacing" textLength="150" x="664" y="490.667">steps_per_epoch : int</text><line style="stroke:#181818;stroke-width:0.5;" x1="659" x2="1158" y1="497.9688" y2="497.9688"/><text fill="#000000" font-family="sans-serif" font-size="14" lengthAdjust="spacing" textLength="302" x="664" y="514.9639">make_loader_example(seed: int) -&gt; Callable</text><text fill="#000000" font-family="sans-serif" font-size="14" lengthAdjust="spacing" textLength="489" x="664" y="531.2607">parse_example(example_proto: tf.Tensor) -&gt; tuple[tf.Tensor, tf.Tensor]</text><text fill="#000000" font-family="sans-serif" font-size="14" lengthAdjust="spacing" textLength="432" x="664" y="547.5576">process(x: tf.Tensor, y: tf.Tensor) -&gt; tuple[tf.Tensor, tf.Tensor]</text><text fill="#000000" font-family="sans-serif" font-size="14" font-style="italic" lengthAdjust="spacing" textLength="206" x="664" y="563.8545">set_model_il_shape() -&gt; None</text></g><!--class lib.data.cifar.Cifar--><g id="elem_lib.data.cifar.Cifar"><rect codeLine="39" fill="#A8C9EA" height="210.9688" id="lib.data.cifar.Cifar" rx="2.5" ry="2.5" style="stroke:#181818;stroke-width:0.5;" width="275" x="461" y="7"/><ellipse cx="536.75" cy="23" fill="#ADD1B2" rx="11" ry="11" style="stroke:#181818;stroke-width:1.0;"/><path d="M539.7188,28.6406 Q539.1406,28.9375 538.5,29.0781 Q537.8594,29.2344 537.1563,29.2344 Q534.6563,29.2344 533.3281,27.5938 Q532.0156,25.9375 532.0156,22.8125 Q532.0156,19.6875 533.3281,18.0313 Q534.6563,16.375 537.1563,16.375 Q537.8594,16.375 538.5,16.5313 Q539.1563,16.6875 539.7188,16.9844 L539.7188,19.7031 Q539.0938,19.125 538.5,18.8594 Q537.9063,18.5781 537.2813,18.5781 Q535.9375,18.5781 535.25,19.6563 Q534.5625,20.7188 534.5625,22.8125 Q534.5625,24.9063 535.25,25.9844 Q535.9375,27.0469 537.2813,27.0469 Q537.9063,27.0469 538.5,26.7813 Q539.0938,26.5 539.7188,25.9219 L539.7188,28.6406 Z " fill="#000000"/><text fill="#000000" font-family="sans-serif" font-size="14" lengthAdjust="spacing" textLength="115" x="557.25" y="27.8467">lib.data.cifar.Cifar</text><line style="stroke:#181818;stroke-width:0.5;" x1="462" x2="735" y1="39" y2="39"/><text fill="#000000" font-family="sans-serif" font-size="14" lengthAdjust="spacing" textLength="213" x="467" y="55.9951">input_shape : ClassVar[list[int]]</text><text fill="#000000" font-family="sans-serif" font-size="14" lengthAdjust="spacing" textLength="263" x="467" y="72.292">input_shape_model : ClassVar[list[int]]</text><text fill="#000000" font-family="sans-serif" font-size="14" lengthAdjust="spacing" textLength="100" x="467" y="88.5889">input_size : int</text><text fill="#000000" font-family="sans-serif" font-size="14" lengthAdjust="spacing" textLength="210" x="467" y="104.8857">label_shape : ClassVar[list[int]]</text><text fill="#000000" font-family="sans-serif" font-size="14" lengthAdjust="spacing" textLength="260" x="467" y="121.1826">label_shape_model : ClassVar[list[int]]</text><text fill="#000000" font-family="sans-serif" font-size="14" lengthAdjust="spacing" textLength="97" x="467" y="137.4795">label_size : int</text><text fill="#000000" font-family="sans-serif" font-size="14" lengthAdjust="spacing" textLength="76" x="467" y="153.7764">n_data : int</text><text fill="#000000" font-family="sans-serif" font-size="14" lengthAdjust="spacing" textLength="156" x="467" y="170.0732">size : ClassVar[list[int]]</text><text fill="#000000" font-family="sans-serif" font-size="14" lengthAdjust="spacing" textLength="150" x="467" y="186.3701">steps_per_epoch : int</text><line style="stroke:#181818;stroke-width:0.5;" x1="462" x2="735" y1="193.6719" y2="193.6719"/><text fill="#000000" font-family="sans-serif" font-size="14" font-style="italic" lengthAdjust="spacing" textLength="206" x="467" y="210.667">set_model_il_shape() -&gt; None</text></g><!--class lib.data.mnist.Mnist--><g id="elem_lib.data.mnist.Mnist"><rect codeLine="51" fill="#A8C9EA" height="210.9688" id="lib.data.mnist.Mnist" rx="2.5" ry="2.5" style="stroke:#181818;stroke-width:0.5;" width="275" x="771" y="7"/><ellipse cx="838.25" cy="23" fill="#ADD1B2" rx="11" ry="11" style="stroke:#181818;stroke-width:1.0;"/><path d="M841.2188,28.6406 Q840.6406,28.9375 840,29.0781 Q839.3594,29.2344 838.6563,29.2344 Q836.1563,29.2344 834.8281,27.5938 Q833.5156,25.9375 833.5156,22.8125 Q833.5156,19.6875 834.8281,18.0313 Q836.1563,16.375 838.6563,16.375 Q839.3594,16.375 840,16.5313 Q840.6563,16.6875 841.2188,16.9844 L841.2188,19.7031 Q840.5938,19.125 840,18.8594 Q839.4063,18.5781 838.7813,18.5781 Q837.4375,18.5781 836.75,19.6563 Q836.0625,20.7188 836.0625,22.8125 Q836.0625,24.9063 836.75,25.9844 Q837.4375,27.0469 838.7813,27.0469 Q839.4063,27.0469 840,26.7813 Q840.5938,26.5 841.2188,25.9219 L841.2188,28.6406 Z " fill="#000000"/><text fill="#000000" font-family="sans-serif" font-size="14" lengthAdjust="spacing" textLength="132" x="858.75" y="27.8467">lib.data.mnist.Mnist</text><line style="stroke:#181818;stroke-width:0.5;" x1="772" x2="1045" y1="39" y2="39"/><text fill="#000000" font-family="sans-serif" font-size="14" lengthAdjust="spacing" textLength="213" x="777" y="55.9951">input_shape : ClassVar[list[int]]</text><text fill="#000000" font-family="sans-serif" font-size="14" lengthAdjust="spacing" textLength="263" x="777" y="72.292">input_shape_model : ClassVar[list[int]]</text><text fill="#000000" font-family="sans-serif" font-size="14" lengthAdjust="spacing" textLength="100" x="777" y="88.5889">input_size : int</text><text fill="#000000" font-family="sans-serif" font-size="14" lengthAdjust="spacing" textLength="210" x="777" y="104.8857">label_shape : ClassVar[list[int]]</text><text fill="#000000" font-family="sans-serif" font-size="14" lengthAdjust="spacing" textLength="260" x="777" y="121.1826">label_shape_model : ClassVar[list[int]]</text><text fill="#000000" font-family="sans-serif" font-size="14" lengthAdjust="spacing" textLength="97" x="777" y="137.4795">label_size : int</text><text fill="#000000" font-family="sans-serif" font-size="14" lengthAdjust="spacing" textLength="76" x="777" y="153.7764">n_data : int</text><text fill="#000000" font-family="sans-serif" font-size="14" lengthAdjust="spacing" textLength="156" x="777" y="170.0732">size : ClassVar[list[int]]</text><text fill="#000000" font-family="sans-serif" font-size="14" lengthAdjust="spacing" textLength="150" x="777" y="186.3701">steps_per_epoch : int</text><line style="stroke:#181818;stroke-width:0.5;" x1="772" x2="1045" y1="193.6719" y2="193.6719"/><text fill="#000000" font-family="sans-serif" font-size="14" font-style="italic" lengthAdjust="spacing" textLength="206" x="777" y="210.667">set_model_il_shape() -&gt; None</text></g><!--class lib.data.processor.Processor--><g id="elem_lib.data.processor.Processor"><rect codeLine="63" fill="#A8C9EA" height="129.4844" id="lib.data.processor.Processor" rx="2.5" ry="2.5" style="stroke:#181818;stroke-width:0.5;" width="462" x="1081.5" y="48"/><ellipse cx="1209.75" cy="64" fill="#ADD1B2" rx="11" ry="11" style="stroke:#181818;stroke-width:1.0;"/><path d="M1212.7188,69.6406 Q1212.1406,69.9375 1211.5,70.0781 Q1210.8594,70.2344 1210.1563,70.2344 Q1207.6563,70.2344 1206.3281,68.5938 Q1205.0156,66.9375 1205.0156,63.8125 Q1205.0156,60.6875 1206.3281,59.0313 Q1207.6563,57.375 1210.1563,57.375 Q1210.8594,57.375 1211.5,57.5313 Q1212.1563,57.6875 1212.7188,57.9844 L1212.7188,60.7031 Q1212.0938,60.125 1211.5,59.8594 Q1210.9063,59.5781 1210.2813,59.5781 Q1208.9375,59.5781 1208.25,60.6563 Q1207.5625,61.7188 1207.5625,63.8125 Q1207.5625,65.9063 1208.25,66.9844 Q1208.9375,68.0469 1210.2813,68.0469 Q1210.9063,68.0469 1211.5,67.7813 Q1212.0938,67.5 1212.7188,66.9219 L1212.7188,69.6406 Z " fill="#000000"/><text fill="#000000" font-family="sans-serif" font-size="14" lengthAdjust="spacing" textLength="197" x="1230.25" y="68.8467">lib.data.processor.Processor</text><line style="stroke:#181818;stroke-width:0.5;" x1="1082.5" x2="1542.5" y1="80" y2="80"/><text fill="#000000" font-family="sans-serif" font-size="14" lengthAdjust="spacing" textLength="68" x="1087.5" y="96.9951">func : dict</text><text fill="#000000" font-family="sans-serif" font-size="14" lengthAdjust="spacing" textLength="150" x="1087.5" y="113.292">params : dict[str, Any]</text><line style="stroke:#181818;stroke-width:0.5;" x1="1082.5" x2="1542.5" y1="120.5938" y2="120.5938"/><text fill="#000000" font-family="sans-serif" font-size="14" lengthAdjust="spacing" textLength="450" x="1087.5" y="137.5889">catencode(x: tf.Tensor, y: tf.Tensor) -&gt; tuple[tf.Tensor, tf.Tensor]</text><text fill="#000000" font-family="sans-serif" font-size="14" lengthAdjust="spacing" textLength="426" x="1087.5" y="153.8857">rescale(x: tf.Tensor, y: tf.Tensor) -&gt; tuple[tf.Tensor, tf.Tensor]</text><text fill="#000000" font-family="sans-serif" font-size="14" lengthAdjust="spacing" textLength="399" x="1087.5" y="170.1826">run(x: tf.Tensor, y: tf.Tensor) -&gt; tuple[tf.Tensor, tf.Tensor]</text></g><!--class lib.model.base.BaseModel--><g id="elem_lib.model.base.BaseModel"><rect codeLine="70" fill="#A8C9EA" height="129.4844" id="lib.model.base.BaseModel" rx="2.5" ry="2.5" style="stroke:#181818;stroke-width:0.5;" width="390" x="113.5" y="368.5"/><ellipse cx="213.75" cy="384.5" fill="#ADD1B2" rx="11" ry="11" style="stroke:#181818;stroke-width:1.0;"/><path d="M216.7188,390.1406 Q216.1406,390.4375 215.5,390.5781 Q214.8594,390.7344 214.1563,390.7344 Q211.6563,390.7344 210.3281,389.0938 Q209.0156,387.4375 209.0156,384.3125 Q209.0156,381.1875 210.3281,379.5313 Q211.6563,377.875 214.1563,377.875 Q214.8594,377.875 215.5,378.0313 Q216.1563,378.1875 216.7188,378.4844 L216.7188,381.2031 Q216.0938,380.625 215.5,380.3594 Q214.9063,380.0781 214.2813,380.0781 Q212.9375,380.0781 212.25,381.1563 Q211.5625,382.2188 211.5625,384.3125 Q211.5625,386.4063 212.25,387.4844 Q212.9375,388.5469 214.2813,388.5469 Q214.9063,388.5469 215.5,388.2813 Q216.0938,388 216.7188,387.4219 L216.7188,390.1406 Z " fill="#000000"/><text fill="#000000" font-family="sans-serif" font-size="14" lengthAdjust="spacing" textLength="181" x="234.25" y="389.3467">lib.model.base.BaseModel</text><line style="stroke:#181818;stroke-width:0.5;" x1="114.5" x2="502.5" y1="400.5" y2="400.5"/><text fill="#000000" font-family="sans-serif" font-size="14" lengthAdjust="spacing" textLength="179" x="119.5" y="417.4951">classes : dict[str, Callable]</text><text fill="#000000" font-family="sans-serif" font-size="14" lengthAdjust="spacing" textLength="51" x="119.5" y="433.792">metrics</text><line style="stroke:#181818;stroke-width:0.5;" x1="114.5" x2="502.5" y1="441.0938" y2="441.0938"/><text fill="#000000" font-family="sans-serif" font-size="14" lengthAdjust="spacing" textLength="336" x="119.5" y="458.0889">test_step(data: tuple[tf.Tensor]) -&gt; dict[str, float]</text><text fill="#000000" font-family="sans-serif" font-size="14" lengthAdjust="spacing" textLength="339" x="119.5" y="474.3857">train_step(data: tuple[tf.Tensor]) -&gt; dict[str, float]</text><text fill="#000000" font-family="sans-serif" font-size="14" lengthAdjust="spacing" textLength="378" x="119.5" y="490.6826">update_metrics(data: tuple[tf.Tensor]) -&gt; dict[str, float]</text></g><!--class lib.model.simple.SimpleModel--><g id="elem_lib.model.simple.SimpleModel"><rect codeLine="77" fill="#A8C9EA" height="80.5938" id="lib.model.simple.SimpleModel" rx="2.5" ry="2.5" style="stroke:#181818;stroke-width:0.5;" width="235" x="191" y="72"/><ellipse cx="206" cy="88" fill="#ADD1B2" rx="11" ry="11" style="stroke:#181818;stroke-width:1.0;"/><path d="M208.9688,93.6406 Q208.3906,93.9375 207.75,94.0781 Q207.1094,94.2344 206.4063,94.2344 Q203.9063,94.2344 202.5781,92.5938 Q201.2656,90.9375 201.2656,87.8125 Q201.2656,84.6875 202.5781,83.0313 Q203.9063,81.375 206.4063,81.375 Q207.1094,81.375 207.75,81.5313 Q208.4063,81.6875 208.9688,81.9844 L208.9688,84.7031 Q208.3438,84.125 207.75,83.8594 Q207.1563,83.5781 206.5313,83.5781 Q205.1875,83.5781 204.5,84.6563 Q203.8125,85.7188 203.8125,87.8125 Q203.8125,89.9063 204.5,90.9844 Q205.1875,92.0469 206.5313,92.0469 Q207.1563,92.0469 207.75,91.7813 Q208.3438,91.5 208.9688,90.9219 L208.9688,93.6406 Z " fill="#000000"/><text fill="#000000" font-family="sans-serif" font-size="14" lengthAdjust="spacing" textLength="203" x="220" y="92.8467">lib.model.simple.SimpleModel</text><line style="stroke:#181818;stroke-width:0.5;" x1="192" x2="425" y1="104" y2="104"/><text fill="#000000" font-family="sans-serif" font-size="14" lengthAdjust="spacing" textLength="122" x="197" y="120.9951">model_layers : list</text><line style="stroke:#181818;stroke-width:0.5;" x1="192" x2="425" y1="128.2969" y2="128.2969"/><text fill="#000000" font-family="sans-serif" font-size="14" lengthAdjust="spacing" textLength="197" x="197" y="145.292">call(x: tf.Tensor) -&gt; tf.Tensor</text></g><!--link lib.data.cifar.Cifar to lib.data.base.BaseLoadData--><g id="link_lib.data.cifar.Cifar_lib.data.base.BaseLoadData"><path codeLine="81" d="M700.43,218.23 C724.26,242.71 737.4242,256.2423 762.3942,281.8923 " fill="none" id="lib.data.cifar.Cifar-to-lib.data.base.BaseLoadData" style="stroke:#181818;stroke-width:1.0;"/><polygon fill="none" points="774.95,294.79,766.6934,277.707,758.0949,286.0775,774.95,294.79" style="stroke:#181818;stroke-width:1.0;"/></g><!--link lib.data.mnist.Mnist to lib.data.base.BaseLoadData--><g id="link_lib.data.mnist.Mnist_lib.data.base.BaseLoadData"><path codeLine="82" d="M908.5,218.23 C908.5,242.71 908.5,251.14 908.5,276.79 " fill="none" id="lib.data.mnist.Mnist-to-lib.data.base.BaseLoadData" style="stroke:#181818;stroke-width:1.0;"/><polygon fill="none" points="908.5,294.79,914.5,276.79,902.5,276.79,908.5,294.79" style="stroke:#181818;stroke-width:1.0;"/></g><!--link lib.model.base.BaseModel to keras.src.models.model.Model--><g id="link_lib.model.base.BaseModel_keras.src.models.model.Model"><path codeLine="83" d="M308.5,497.86 C308.5,535.29 308.5,566.4 308.5,613.82 " fill="none" id="lib.model.base.BaseModel-to-keras.src.models.model.Model" style="stroke:#181818;stroke-width:1.0;"/><polygon fill="none" points="308.5,631.82,314.5,613.82,302.5,613.82,308.5,631.82" style="stroke:#181818;stroke-width:1.0;"/></g><!--link lib.model.simple.SimpleModel to lib.model.base.BaseModel--><g id="link_lib.model.simple.SimpleModel_lib.model.base.BaseModel"><path codeLine="84" d="M308.5,153.19 C308.5,207.14 308.5,286.22 308.5,350.39 " fill="none" id="lib.model.simple.SimpleModel-to-lib.model.base.BaseModel" style="stroke:#181818;stroke-width:1.0;"/><polygon fill="none" points="308.5,368.39,314.5,350.39,302.5,350.39,308.5,368.39" style="stroke:#181818;stroke-width:1.0;"/></g><!--link lib.data.processor.Processor to lib.data.base.BaseLoadData--><g id="link_lib.data.processor.Processor_lib.data.base.BaseLoadData"><path codeLine="85" d="M1231.72,177.19 C1188.89,210.95 1143.943,246.3799 1092.073,287.2799 " fill="none" id="lib.data.processor.Processor-to-lib.data.base.BaseLoadData" style="stroke:#181818;stroke-width:1.0;"/><polygon fill="#181818" points="1082.65,294.71,1089.8382,294.1359,1092.073,287.2799,1084.8848,287.8539,1082.65,294.71" style="stroke:#181818;stroke-width:1.0;"/><text fill="#000000" font-family="sans-serif" font-size="13" lengthAdjust="spacing" textLength="63" x="1136.5" y="261.0669">Processor</text></g><!--SRC=[xLPBRnCn4BxdLvXosQ9apz03KWaNf3uGhRXKaJNnpYPkTstZyRP9I_yxO-TDDYbjnGLnsOVdwMy-Z-TDWQKsA4wFlvp9_idnnONidv-SVnDluRtwWD3f40PXe4PoeF027NW8rWjZ3NPK1KJYu0OzK4vUvRKjiABPAp-DpmC19FOfR8T-w0XHmHGzyOVpM6WLPDaO5RGruaYSSUZBgKEM1gIT8W_Qx90D6rqLilIsbigQKe-osUkGPGym9BPLuL51LMLn2IVE-f2LkkBjXt5NbDRN4BhY5ltG4dQ5Dgu9alJ8G6WyHgDjxrsX6WgyQeVNg095hH46cVQQHOoZem8d2m4522Y3HynkeMfGpk96SMMXa7UeH-D0QudHZNQoriHQQXprVZHWWhx7B28U5mXkSSt0yXRkl0uS-buxXyL2fyNvccuD4qbZy0Nl-NxcTpFVrMSIDdKDVffLJ3LPeHb5TywIZgKX_lJQS1rDDq8Dff26wue5xsTixsIg90mhZfkWaXxCAFaDLbwJDLoanmKNAptC2mYG3u4m_yIF4uRgCwya9kuMj_FmgxSAYQpdxtcHn-2GwTIFyRw3lweqXIlEVp3Or969v4zfCdoimek9z4EidWYmflD4WBdcUW0ZuzwNl_4iryI_yOHTCUkxujXCeosZxqWwnXgTLUEbHGqtN416B4ecKBkAIurO9FcXw7qKVJuqiLOpzuHBjVbREc-3FHAXp2_HCB39AZGikbgkTLVYGUe1gGZPPCsiAwRFSx8wrv6g2JgfvqXcoJusY1OYALs2p_lnkKcXDK4xUVuvminbxUQxEFDYu6l3xlFJ-Dm4Vatm7_Y_0BnRDBrysVus2z2Yq5w8UFtE-ylUVgFujZ2ACtpT6VT8V6c_rabZNkDW0yxPdBEyQrOJqIvXEup98suYjsYqCUKQWzUA5WDH94GM2tNqUwQ3bFxAISczF0oMqz8B31jNn9j-di6pZ5kG8XtlYFmYlThGsbPeHsp6zjaKoR35yv9enXFTPAkQYp_EgBMvzte_F-wP73gjZUbFZ5ePa0ptJSoTlN0iuxOvx-mzmhtUktq3qj5g6le5]--></g></svg>